<?xml version="1.0" standalone="no"?>
<!DOCTYPE svg PUBLIC "-//W3C//DTD SVG 20010904//EN"
 "http://www.w3.org/TR/2001/REC-SVG-20010904/DTD/svg10.dtd">
<svg version="1.0" xmlns="http://www.w3.org/2000/svg"
 width="907.000000pt" height="571.000000pt" viewBox="0 0 907.000000 571.000000"
 preserveAspectRatio="xMidYMid meet">

<g transform="translate(0.000000,571.000000) scale(0.100000,-0.100000)"
fill="#ffffff" stroke="none">
<path d="M4545 5694 c-231 -24 -464 -79 -645 -150 -533 -211 -957 -603 -1210
-1119 -166 -337 -240 -686 -227 -1075 10 -320 72 -588 200 -871 l26 -56 -87
-69 c-48 -38 -90 -70 -93 -72 -3 -1 -38 40 -78 92 -48 63 -83 98 -102 105 -29
10 -553 -2 -607 -14 -12 -3 -87 -54 -167 -114 l-144 -109 -73 94 c-40 52 -84
98 -100 105 -27 11 -283 8 -529 -7 l-97 -6 -140 -108 c-129 -100 -141 -113
-156 -157 -57 -177 -306 -1085 -306 -1118 0 -35 11 -54 75 -140 114 -152 72
-139 405 -130 157 3 302 10 322 15 22 4 70 33 114 66 41 33 87 67 100 78 l25
18 -6 -24 c-9 -37 18 -94 54 -112 34 -18 174 -20 363 -7 82 5 112 11 127 25
19 17 22 18 45 2 21 -13 52 -16 173 -15 218 1 298 10 325 36 l21 22 30 -21
c28 -20 41 -22 186 -20 194 3 280 11 308 29 19 12 25 12 52 -1 26 -14 59 -15
240 -8 189 7 212 9 238 28 28 20 28 20 58 2 28 -17 45 -18 235 -12 147 4 214
10 237 21 35 16 53 48 78 141 10 34 20 62 24 62 3 -1 34 -39 69 -85 86 -117
89 -118 225 -116 321 4 671 23 698 37 36 18 38 23 70 129 30 103 9 90 203 120
61 9 149 27 197 39 l87 23 -20 -66 c-29 -99 -33 -143 -14 -179 31 -60 51 -64
291 -54 199 7 217 10 236 29 l21 21 34 -20 c32 -19 45 -19 236 -13 132 5 215
12 236 21 36 15 60 58 83 152 7 29 17 51 22 49 5 -1 42 -43 81 -92 54 -68 80
-93 106 -101 34 -10 512 -1 586 11 20 4 83 46 170 114 77 60 140 108 142 106
1 -1 -2 -14 -8 -29 -25 -68 -3 -144 50 -166 30 -13 344 -8 686 9 l130 7 135
106 c74 59 140 118 147 133 7 14 37 113 66 220 61 216 61 226 7 294 -17 21
-31 43 -31 48 0 5 28 32 63 60 104 85 103 83 162 294 30 107 55 210 55 230 0
29 -14 55 -80 142 -44 59 -93 113 -108 121 -25 13 -78 13 -417 1 -430 -15
-420 -13 -457 -84 l-16 -32 -14 27 c-29 59 -51 66 -209 65 -207 -2 -289 -10
-320 -31 -26 -18 -28 -18 -65 0 -36 17 -55 18 -244 11 -172 -6 -209 -10 -232
-25 -16 -10 -28 -23 -28 -28 0 -5 -4 -7 -9 -4 -5 3 2 36 16 73 144 394 165
918 54 1339 -77 292 -207 557 -394 803 l-71 93 -16 -58 c-44 -157 -141 -266
-288 -323 l-67 -25 -475 -6 c-420 -5 -480 -8 -520 -23 -149 -59 -262 -173
-311 -314 -33 -98 -41 -93 131 -93 l149 0 50 50 c270 270 710 294 1013 55 121
-95 228 -260 265 -410 23 -95 22 -276 -1 -370 -55 -214 -204 -398 -401 -495
-103 -51 -177 -70 -300 -77 -212 -12 -422 66 -566 211 l-47 46 -352 0 -352 0
-61 -56 c-148 -134 -328 -204 -523 -204 -350 0 -661 248 -738 587 -21 93 -21
253 0 346 59 265 276 491 539 562 90 25 264 30 352 12 144 -31 263 -93 373
-194 l68 -63 154 0 154 0 12 59 c31 149 157 312 292 378 125 61 142 63 607 63
274 0 441 4 475 11 163 35 283 164 310 335 l10 69 -101 97 c-332 318 -742 521
-1206 599 -116 19 -450 33 -550 23z m4323 -3159 l63 -83 -51 -184 -52 -183
-110 -90 c-60 -50 -112 -93 -114 -97 -3 -4 23 -42 56 -85 33 -43 60 -84 60
-92 0 -12 -22 -93 -81 -292 -19 -67 -19 -67 -132 -156 l-113 -90 -353 -12
c-194 -6 -356 -10 -359 -7 -3 3 87 326 199 718 l204 713 300 11 c165 6 327 11
360 12 l60 1 63 -84z m-1039 -12 c-10 -38 -93 -322 -183 -633 l-164 -565 -118
-92 -119 -93 -80 0 c-44 0 -163 -3 -265 -6 l-185 -6 -62 81 c-35 44 -63 85
-63 90 0 8 350 1255 353 1257 1 1 82 4 181 7 l178 7 -7 -28 c-3 -15 -69 -245
-145 -512 -76 -267 -141 -496 -145 -510 l-6 -25 88 4 c48 1 89 4 91 6 1 1 71
243 155 536 l153 534 149 5 c83 3 164 7 182 8 l31 2 -19 -67z m-1084 6 c-4
-12 -97 -334 -206 -717 -109 -382 -200 -696 -201 -697 -6 -5 -358 -12 -358 -8
0 3 32 119 70 257 39 139 70 257 70 264 0 13 -69 16 -130 6 l-36 -6 -74 -255
c-41 -140 -78 -260 -82 -266 -5 -8 -65 -14 -180 -17 -95 -3 -175 -5 -177 -3
-2 1 88 323 201 715 l205 713 109 8 c60 4 141 6 180 5 l71 -3 -72 -260 -72
-260 80 -3 c44 -2 81 -1 84 2 4 3 50 153 144 468 l20 67 102 4 c277 8 259 9
252 -14z m-1590 -76 c-7 -27 -30 -107 -50 -180 -43 -151 -33 -143 -170 -143
-49 0 -160 -3 -246 -7 l-157 -6 -26 -85 c-14 -47 -25 -86 -23 -88 1 -2 121 2
266 7 145 6 265 8 267 6 4 -3 -92 -347 -99 -354 -3 -3 -443 -22 -523 -23 -19
0 -24 -12 -43 -85 -11 -46 -21 -86 -21 -87 0 -2 117 1 261 5 143 5 262 7 264
5 2 -2 -19 -83 -47 -179 l-50 -176 -152 -6 c-83 -4 -245 -10 -361 -13 l-210
-6 -62 84 -62 85 155 544 156 544 52 41 c28 22 79 62 114 89 l62 48 328 12
c180 7 341 13 359 13 l32 2 -14 -47z m-1194 -84 c45 -60 60 -86 55 -102 -3
-12 -83 -297 -177 -633 l-172 -612 -176 -4 c-97 -3 -177 -4 -179 -3 -2 2 66
242 150 533 84 292 150 533 147 536 -3 3 -43 3 -90 -1 l-85 -6 -154 -533 -153
-533 -51 -5 c-101 -11 -306 -11 -306 0 0 5 65 237 145 515 80 277 148 515 152
528 l6 24 -82 -6 c-46 -3 -84 -7 -86 -9 -2 -2 -72 -242 -156 -533 -84 -292
-153 -531 -155 -533 -1 -2 -82 -6 -179 -9 l-178 -6 5 24 c14 70 343 1226 351
1237 6 8 58 51 116 96 l106 83 181 7 182 8 61 -81 c34 -45 65 -81 69 -81 4 0
55 38 113 85 121 95 102 90 341 93 l137 2 62 -81z m-1628 -52 l65 -83 -177
-630 -178 -629 -89 -6 c-49 -4 -130 -7 -180 -8 l-92 -1 49 168 c27 92 49 173
49 180 0 10 -21 12 -87 10 l-88 -3 -52 -178 c-28 -98 -53 -180 -55 -181 -1 -2
-84 -7 -182 -11 -153 -6 -178 -5 -173 7 3 8 83 292 178 631 l173 617 120 90
c72 54 130 90 145 91 77 4 385 16 443 17 l66 2 65 -83z m-1094 -36 c33 -44 61
-84 61 -90 0 -11 -100 -354 -103 -357 -4 -3 -357 -13 -357 -11 0 2 11 37 25
77 14 40 25 77 25 82 0 4 -39 8 -88 8 l-87 0 -69 -252 c-38 -139 -81 -299 -97
-356 l-28 -103 87 3 86 3 18 70 c26 102 25 107 -17 99 -42 -8 -42 -7 -14 97
l21 77 91 6 c191 11 357 14 357 6 0 -13 -129 -492 -139 -516 -5 -12 -59 -61
-120 -108 l-111 -87 -233 -9 c-358 -14 -312 -23 -383 74 l-62 83 154 544 c138
490 157 546 181 567 16 12 69 54 118 92 l91 69 144 4 c80 1 200 4 266 5 l122
2 61 -79z"/>
<path d="M8321 2168 c-12 -46 -21 -86 -21 -90 0 -11 142 -10 157 0 11 7 63
142 63 164 0 4 -40 8 -88 8 l-89 0 -22 -82z"/>
<path d="M8167 1627 c-15 -46 -27 -87 -27 -91 0 -6 170 2 178 9 4 4 42 146 42
158 0 4 -37 7 -83 7 l-83 0 -27 -83z"/>
<path d="M1813 2018 c-11 -14 -107 -348 -101 -352 1 -1 42 0 89 2 l87 4 42
161 c22 89 44 170 46 180 5 15 -3 17 -74 17 -52 0 -83 -4 -89 -12z"/>
<path d="M5830 5646 c-23 -29 -7 -60 48 -91 504 -285 879 -702 1091 -1216 34
-82 54 -98 90 -72 28 19 27 38 -13 130 -223 520 -598 942 -1083 1216 -87 50
-113 56 -133 33z"/>
<path d="M2775 4998 c-77 -89 -220 -318 -296 -472 -193 -397 -281 -845 -249
-1270 10 -134 31 -291 46 -339 12 -39 73 -42 86 -5 3 7 -3 60 -14 118 -25 138
-35 503 -19 650 50 436 217 858 477 1203 41 53 74 104 74 111 0 20 -28 46 -50
46 -10 0 -35 -19 -55 -42z"/>
<path d="M3703 4119 c-202 -34 -369 -182 -439 -389 -26 -77 -26 -244 0 -320
34 -100 68 -154 145 -231 114 -114 234 -163 396 -163 302 1 545 248 545 554 0
267 -182 490 -445 545 -77 16 -124 17 -202 4z m185 -343 c1 -56 8 -106 14
-114 9 -10 28 -12 85 -7 40 4 84 4 98 1 26 -7 26 -7 23 -99 l-3 -92 -105 -5
-105 -5 -5 -105 -5 -105 -90 0 -90 0 -3 107 -3 107 -107 3 -107 3 -3 93 -3 92
95 0 c52 0 101 3 110 6 13 5 16 24 16 109 0 73 4 105 13 109 6 2 48 4 92 3
l80 -2 3 -99z"/>
<path d="M5568 4120 c-209 -35 -373 -179 -444 -390 -26 -77 -26 -244 0 -320
34 -100 68 -154 145 -231 114 -114 234 -164 396 -163 303 2 545 248 545 555 0
342 -308 605 -642 549z m19 -314 c26 -28 33 -44 33 -76 0 -81 -49 -130 -131
-130 -35 0 -48 6 -80 39 -32 32 -39 46 -39 77 0 51 18 83 60 112 52 35 113 26
157 -22z m287 29 c40 -19 66 -62 66 -110 0 -76 -51 -125 -131 -125 -33 0 -47
6 -74 33 -43 43 -52 79 -34 131 25 73 102 104 173 71z m-311 -307 c28 -15 57
-70 57 -109 0 -51 -36 -101 -87 -118 -35 -13 -46 -13 -79 0 -78 30 -107 122
-61 190 36 53 109 69 170 37z m289 12 c116 -33 119 -202 4 -240 -80 -26 -166
37 -166 121 0 43 32 91 74 110 49 22 42 21 88 9z"/>
<path d="M4735 3620 l260 -5 0 -75 0 -75 -260 -5 -260 -6 256 -2 c187 -1 258
1 267 10 7 7 12 40 12 78 0 38 -5 71 -12 78 -9 9 -80 11 -267 10 l-256 -2 260
-6z"/>
<path d="M4463 3540 c0 -41 2 -58 4 -37 2 20 2 54 0 75 -2 20 -4 3 -4 -38z"/>
<path d="M4520 3540 l0 -30 100 0 100 0 0 30 0 30 -100 0 -100 0 0 -30z"/>
<path d="M4750 3540 l0 -30 100 0 100 0 0 30 0 30 -100 0 -100 0 0 -30z"/>
<path d="M2352 2773 c-30 -12 -34 -43 -11 -111 26 -80 34 -92 63 -92 28 0 46
18 46 45 0 35 -39 139 -57 153 -18 13 -21 13 -41 5z"/>
<path d="M5972 814 c-27 -19 -51 -64 -67 -124 -10 -41 -15 -45 -46 -50 -26 -4
-35 -10 -37 -27 -3 -20 1 -23 28 -23 25 0 30 -3 26 -17 -12 -43 -56 -223 -56
-232 0 -15 35 -14 47 2 6 6 23 65 39 129 l28 117 38 6 c29 5 38 12 38 26 0 14
-7 19 -30 19 -35 0 -35 0 -15 68 16 54 52 89 80 78 13 -4 35 20 35 38 0 13
-87 5 -108 -10z"/>
<path d="M3645 704 c-22 -22 -15 -58 11 -62 28 -4 54 23 54 54 0 19 -5 24 -24
24 -14 0 -32 -7 -41 -16z"/>
<path d="M7923 699 c-40 -20 -73 -66 -73 -102 0 -25 28 -46 75 -58 55 -14 70
-30 56 -58 -16 -29 -74 -38 -107 -16 -23 15 -27 15 -50 0 -29 -19 -29 -19 -2
-45 16 -14 35 -20 70 -20 91 0 158 49 158 115 0 40 -13 51 -79 71 -44 13 -52
19 -49 37 2 12 15 28 31 37 25 14 30 13 56 -1 26 -15 30 -15 52 2 l24 19 -24
20 c-30 26 -84 26 -138 -1z"/>
<path d="M7592 689 c-126 -63 -166 -246 -62 -289 44 -18 125 -6 172 25 38 25
39 27 23 45 -16 18 -18 18 -52 -6 -64 -43 -143 -23 -143 37 l0 29 113 0 c61 0
117 4 123 8 12 7 18 53 15 100 0 13 -13 34 -27 47 -35 32 -102 34 -162 4z
m126 -46 c6 -9 12 -27 12 -38 0 -20 -6 -22 -87 -28 -47 -3 -90 -4 -94 -1 -16
10 25 57 66 75 44 21 83 17 103 -8z"/>
<path d="M7285 686 c-17 -7 -36 -20 -44 -29 -12 -15 -15 -15 -34 9 -18 23 -26
26 -67 22 -26 -3 -61 -15 -78 -26 -29 -21 -30 -21 -25 -2 4 16 0 20 -20 20
-29 0 -24 12 -71 -177 -32 -126 -32 -133 -2 -133 21 0 26 8 45 86 26 102 41
135 77 163 46 36 94 23 94 -25 0 -13 -9 -60 -20 -106 -25 -105 -25 -108 4
-108 27 0 25 -3 51 110 22 95 47 137 88 148 76 21 91 -17 58 -146 -26 -101
-26 -102 4 -102 26 0 23 -6 59 136 17 66 20 122 8 140 -22 33 -77 42 -127 20z"/>
<path d="M1987 458 c-32 -128 -57 -239 -57 -245 0 -7 11 -13 24 -13 22 0 26 8
46 90 12 50 32 105 44 123 28 42 71 63 105 51 35 -12 38 -50 12 -152 -26 -101
-26 -102 4 -102 27 0 24 -5 65 158 l23 93 -20 27 c-18 24 -27 27 -76 27 -45 0
-61 -5 -81 -24 -15 -14 -26 -19 -26 -12 0 11 32 147 46 194 4 13 -1 17 -23 17
l-28 0 -58 -232z"/>
<path d="M6693 660 c-44 -19 -49 -26 -35 -47 6 -10 20 -8 59 9 49 20 53 20 77
4 16 -10 26 -26 26 -40 0 -21 -6 -24 -62 -30 -115 -13 -178 -60 -178 -134 0
-41 28 -62 82 -62 32 0 56 7 83 26 36 24 37 24 32 5 -4 -17 0 -21 19 -21 19 0
25 8 34 43 7 23 20 73 31 112 25 92 24 110 -7 134 -34 27 -104 27 -161 1z
m107 -159 c0 -29 -46 -78 -86 -91 -29 -10 -39 -9 -59 4 -42 28 -11 78 61 95
65 15 84 13 84 -8z"/>
<path d="M6319 647 c-88 -46 -138 -161 -102 -234 34 -71 138 -81 202 -21 l24
22 -7 -27 c-18 -75 -52 -114 -111 -127 -41 -9 -97 3 -115 26 -12 13 -16 12
-37 -7 -12 -13 -23 -26 -23 -31 0 -15 82 -48 119 -48 77 0 164 48 196 110 11
22 95 334 95 355 0 3 -12 5 -26 5 -17 0 -28 -6 -31 -20 -5 -20 -5 -20 -30 0
-35 27 -98 26 -154 -3z m131 -47 c38 -38 20 -125 -36 -169 -27 -21 -84 -28
-119 -15 -47 18 -37 109 17 161 52 48 104 57 138 23z"/>
<path d="M1738 653 c-54 -2 -98 -7 -98 -11 0 -4 -3 -17 -6 -30 -6 -22 -6 -22
65 -16 52 5 71 4 71 -5 0 -6 -20 -92 -45 -191 -25 -99 -45 -184 -45 -190 0 -5
13 -10 28 -10 l28 0 49 200 49 200 66 0 c68 0 90 10 90 42 0 19 6 19 -252 11z"/>
<path d="M703 636 c-325 -7 -595 -15 -599 -19 -4 -4 -3 -11 2 -16 10 -11 1437
14 1454 24 6 4 8 11 5 16 -7 10 -47 10 -862 -5z"/>
<path d="M5565 621 c-126 -57 -175 -225 -82 -281 110 -67 277 46 277 187 -1
99 -90 142 -195 94z m115 -51 c46 -46 11 -147 -63 -184 -110 -54 -169 72 -75
161 52 48 104 57 138 23z"/>
<path d="M5022 599 c-126 -63 -166 -246 -62 -289 44 -18 125 -6 172 25 38 25
39 27 23 45 -16 18 -18 18 -52 -6 -64 -43 -143 -23 -143 37 l0 29 113 0 c61 0
117 4 123 8 12 7 18 53 15 100 0 13 -13 34 -27 47 -35 32 -102 34 -162 4z
m126 -46 c6 -9 12 -27 12 -38 0 -20 -6 -22 -87 -28 -47 -3 -90 -4 -94 -1 -16
10 25 57 66 75 44 21 83 17 103 -8z"/>
<path d="M4703 589 c-40 -20 -73 -66 -73 -102 0 -25 28 -46 75 -58 55 -14 70
-30 56 -58 -16 -29 -74 -38 -107 -16 -23 15 -27 15 -50 0 -29 -19 -29 -19 -2
-45 16 -14 35 -20 70 -20 91 0 158 49 158 115 0 40 -13 51 -79 71 -44 13 -52
19 -49 37 2 12 15 28 31 37 25 14 30 13 56 -1 26 -15 30 -15 52 2 l24 19 -24
20 c-30 26 -84 26 -138 -1z"/>
<path d="M4530 583 c-14 -9 -28 -22 -32 -27 -4 -6 -8 -1 -8 12 0 17 -6 22 -25
22 -27 0 -22 11 -69 -177 -32 -126 -32 -133 -2 -133 22 0 26 8 46 89 32 131
63 171 134 171 21 0 35 21 36 53 0 14 -55 7 -80 -10z"/>
<path d="M4142 569 c-126 -63 -166 -246 -62 -289 44 -18 125 -6 172 25 38 25
39 27 23 45 -16 18 -18 18 -52 -6 -64 -43 -143 -23 -143 37 l0 29 113 0 c61 0
117 4 123 8 12 7 18 53 15 100 0 13 -13 34 -27 47 -35 32 -102 34 -162 4z
m126 -46 c6 -9 12 -27 12 -38 0 -20 -6 -22 -87 -28 -47 -3 -90 -4 -94 -1 -16
10 25 57 66 75 44 21 83 17 103 -8z"/>
<path d="M3956 558 c-8 -13 -41 -67 -74 -121 -67 -111 -62 -113 -83 41 l-12
92 -32 0 c-26 0 -32 -4 -29 -17 2 -10 10 -65 19 -123 26 -170 22 -160 58 -160
30 0 37 9 129 155 l97 155 -29 0 c-20 0 -34 -7 -44 -22z"/>
<path d="M3581 433 c-19 -76 -36 -146 -39 -156 -4 -15 0 -18 24 -15 27 3 29 7
59 128 17 69 35 137 38 153 7 25 5 27 -21 27 -27 0 -28 -2 -61 -137z"/>
<path d="M3360 553 c-8 -3 -25 -15 -37 -26 l-23 -20 0 21 c0 17 -6 22 -25 22
-27 0 -22 11 -69 -177 -32 -126 -32 -133 -2 -133 22 0 26 8 46 90 12 50 32
105 44 123 28 42 71 63 105 51 35 -12 38 -50 12 -152 -26 -101 -26 -102 4
-102 27 0 24 -5 65 158 l23 93 -20 27 c-16 21 -29 27 -64 29 -24 1 -51 -1 -59
-4z"/>
<path d="M3079 453 c-18 -76 -31 -105 -54 -131 -36 -39 -84 -51 -108 -27 -22
21 -21 43 3 135 26 99 26 110 -5 110 -20 0 -26 -7 -34 -37 -51 -194 -53 -233
-19 -257 31 -22 86 -20 131 4 32 17 37 18 37 4 0 -11 8 -14 27 -12 26 3 28 9
58 128 17 69 35 137 38 153 7 25 5 27 -22 27 -29 0 -30 -2 -52 -97z"/>
<path d="M2422 509 c-126 -63 -166 -246 -62 -289 44 -18 125 -6 172 25 38 25
39 27 23 45 -16 18 -18 18 -52 -6 -64 -43 -143 -23 -143 37 l0 29 113 0 c61 0
117 4 123 8 12 7 18 53 15 100 0 13 -13 34 -27 47 -35 32 -102 34 -162 4z
m126 -46 c6 -9 12 -27 12 -38 0 -20 -6 -22 -87 -28 -47 -3 -90 -4 -94 -1 -16
10 25 57 66 75 44 21 83 17 103 -8z"/>
</g>
</svg>
